<?xml version="1.0" encoding="utf-8"?>
<!-- Generator: Adobe Illustrator 21.1.0, SVG Export Plug-In . SVG Version: 6.00 Build 0)  -->
<svg version="1.1" id="Layer_1" xmlns="http://www.w3.org/2000/svg" xmlns:xlink="http://www.w3.org/1999/xlink" x="0px" y="0px"
	 viewBox="0 0 164 292" style="enable-background:new 0 0 164 292;" xml:space="preserve">
<style type="text/css">
	.st0{fill:#FFFFFF;}
</style>
<g>
	<path class="st0" d="M225.5,279.6c-1.4,0.8-2.8,1.6-4.2,2.4C222.2,280.6,223.7,279.6,225.5,279.6z"/>
	<path class="st0" d="M260.9,250.8c-2.2,2.4-4.5,4.8-6.9,7.1c-1.6-0.9-2.7-2.6-2.8-4.5c0-2.9,2.3-5.2,5.1-5.2
		C258.3,248.1,260,249.2,260.9,250.8z"/>
	<path class="st0" d="M284.2,217.5c-0.7,1.4-1.5,2.8-2.3,4.2C281.9,220,282.8,218.5,284.2,217.5z"/>
	<path class="st0" d="M74.6,283.7c-1.4-0.7-2.8-1.5-4.2-2.3C72.1,281.4,73.7,282.4,74.6,283.7z"/>
	<path class="st0" d="M41.4,260.4c1.6-0.9,2.7-2.6,2.7-4.6c0-2.9-2.4-5.1-5.2-5.1c-2,0-3.7,1.1-4.5,2.8
		C36.6,255.9,38.9,258.2,41.4,260.4z"/>
	<path class="st0" d="M12.6,225c-0.1-1.8-1-3.3-2.4-4.2C11,222.3,11.8,223.6,12.6,225z"/>
	<path class="st0" d="M8.4,74.2c1.4-0.9,2.3-2.5,2.3-4.2C10,71.3,9.2,72.7,8.4,74.2z"/>
	<path class="st0" d="M31.7,40.9c0.9,1.6,2.6,2.7,4.6,2.7c2.9,0,5.2-2.4,5.1-5.2c0-2-1.1-3.7-2.8-4.5C36.3,36.1,34,38.5,31.7,40.9z"
		/>
	<path class="st0" d="M67.1,12.2c1.8-0.1,3.3-1,4.2-2.4C69.9,10.5,68.5,11.3,67.1,12.2z"/>
	<path class="st0" d="M285.6,102.8c-2.9,0-5.2-2.3-5.2-5.1c0-2.9,2.3-5.2,5.1-5.2c2.9,0,5.2,2.3,5.2,5.1
		C290.8,100.4,288.5,102.7,285.6,102.8z"/>
	<path class="st0" d="M286,133.8c-2.9,0-5.2-2.3-5.2-5.1c0-2.9,2.3-5.2,5.1-5.2c2.9,0,5.2,2.3,5.2,5.1
		C291.1,131.4,288.9,133.8,286,133.8z"/>
	<path class="st0" d="M286.4,164.9c-2.9,0-5.2-2.3-5.2-5.1c0-2.9,2.3-5.2,5.1-5.2c2.9,0,5.2,2.3,5.2,5.1
		C291.5,162.5,289.2,164.9,286.4,164.9z"/>
	<path class="st0" d="M286.7,196c-2.9,0-5.2-2.3-5.2-5.1c0-2.9,2.3-5.2,5.1-5.2c2.9,0,5.2,2.3,5.2,5.1
		C291.9,193.6,289.6,195.9,286.7,196z"/>
	<path class="st0" d="M254.2,72.1c-2.9,0-5.2-2.3-5.2-5.1c0-2.9,2.3-5.2,5.1-5.2c2.9,0,5.2,2.3,5.2,5.1
		C259.3,69.7,257,72,254.2,72.1z"/>
	<path class="st0" d="M254.5,103.1c-2.9,0-5.2-2.3-5.2-5.1c0-2.9,2.3-5.2,5.1-5.2c2.9,0,5.2,2.3,5.2,5.1
		C259.7,100.7,257.4,103.1,254.5,103.1z"/>
	<path class="st0" d="M254.9,134.2c-2.9,0-5.2-2.3-5.2-5.1c0-2.9,2.3-5.2,5.1-5.2c2.9,0,5.2,2.3,5.2,5.1
		C260.1,131.8,257.8,134.2,254.9,134.2z"/>
	<path class="st0" d="M255.3,165.3c-2.9,0-5.2-2.3-5.2-5.1c0-2.9,2.3-5.2,5.1-5.2c2.9,0,5.2,2.3,5.2,5.1
		C260.4,162.9,258.2,165.2,255.3,165.3z"/>
	<path class="st0" d="M255.7,196.3c-2.9,0-5.2-2.3-5.2-5.1s2.3-5.2,5.1-5.2c2.9,0,5.2,2.3,5.2,5.1
		C260.8,194,258.5,196.3,255.7,196.3z"/>
	<path class="st0" d="M256,227.4c-2.9,0-5.2-2.3-5.2-5.1c0-2.9,2.3-5.2,5.1-5.2c2.9,0,5.2,2.3,5.2,5.1
		C261.2,225,258.9,227.4,256,227.4z"/>
	<path class="st0" d="M222.7,41.4c-2.9,0-5.2-2.3-5.2-5.1c0-2.9,2.3-5.2,5.1-5.2c2.9,0,5.2,2.3,5.2,5.1
		C227.9,39,225.6,41.3,222.7,41.4z"/>
	<path class="st0" d="M223.1,72.4c-2.9,0-5.2-2.3-5.2-5.1c0-2.9,2.3-5.2,5.1-5.2s5.2,2.3,5.2,5.1C228.3,70,226,72.4,223.1,72.4z"/>
	<path class="st0" d="M223.5,103.5c-2.9,0-5.2-2.3-5.2-5.1c0-2.9,2.3-5.2,5.1-5.2c2.9,0,5.2,2.3,5.2,5.1
		C228.6,101.1,226.3,103.5,223.5,103.5z"/>
	<path class="st0" d="M223.9,134.6c-2.9,0-5.2-2.3-5.2-5.1c0-2.9,2.3-5.2,5.1-5.2c2.9,0,5.2,2.3,5.2,5.1
		C229,132.2,226.7,134.5,223.9,134.6z"/>
	<path class="st0" d="M224.2,165.6c-2.9,0-5.2-2.3-5.2-5.1c0-2.9,2.3-5.2,5.1-5.2c2.9,0,5.2,2.3,5.2,5.1
		C229.4,163.3,227.1,165.6,224.2,165.6z"/>
	<path class="st0" d="M224.6,196.7c-2.9,0-5.2-2.3-5.2-5.1c0-2.9,2.3-5.2,5.1-5.2c2.9,0,5.2,2.3,5.2,5.1
		C229.8,194.3,227.5,196.7,224.6,196.7z"/>
	<path class="st0" d="M225,227.8c-2.9,0-5.2-2.3-5.2-5.1c0-2.9,2.3-5.2,5.1-5.2s5.2,2.3,5.2,5.1C230.1,225.4,227.8,227.7,225,227.8z
		"/>
	<path class="st0" d="M225.3,258.8c-2.9,0-5.2-2.3-5.2-5.1c0-2.9,2.3-5.2,5.1-5.2c2.9,0,5.2,2.3,5.2,5.1
		C230.5,256.5,228.2,258.8,225.3,258.8z"/>
	<path class="st0" d="M191.3,10.7c-2.9,0-5.2-2.3-5.2-5.1c0-2.9,2.3-5.2,5.1-5.2c2.9,0,5.2,2.3,5.2,5.1
		C196.4,8.3,194.1,10.6,191.3,10.7z"/>
	<path class="st0" d="M191.7,41.7c-2.9,0-5.2-2.3-5.2-5.1c0-2.9,2.3-5.2,5.1-5.2c2.9,0,5.2,2.3,5.2,5.1
		C196.8,39.4,194.5,41.7,191.7,41.7z"/>
	<path class="st0" d="M192,72.8c-2.9,0-5.2-2.3-5.2-5.1c0-2.9,2.3-5.2,5.1-5.2c2.9,0,5.2,2.3,5.2,5.1
		C197.2,70.4,194.9,72.8,192,72.8z"/>
	<path class="st0" d="M192.4,103.9c-2.9,0-5.2-2.3-5.2-5.1c0-2.9,2.3-5.2,5.1-5.2c2.9,0,5.2,2.3,5.2,5.1
		C197.6,101.5,195.3,103.8,192.4,103.9z"/>
	<path class="st0" d="M192.8,134.9c-2.9,0-5.2-2.3-5.2-5.1c0-2.9,2.3-5.2,5.1-5.2c2.9,0,5.2,2.3,5.2,5.1
		C197.9,132.6,195.6,134.9,192.8,134.9z"/>
	<path class="st0" d="M193.2,166c-2.9,0-5.2-2.3-5.2-5.1c0-2.9,2.3-5.2,5.1-5.2c2.9,0,5.2,2.3,5.2,5.1
		C198.3,163.6,196,166,193.2,166z"/>
	<path class="st0" d="M193.5,197.1c-2.9,0-5.2-2.3-5.2-5.1c0-2.9,2.3-5.2,5.1-5.2c2.9,0,5.2,2.3,5.2,5.1S196.4,197,193.5,197.1z"/>
	<path class="st0" d="M193.9,228.1c-2.9,0-5.2-2.3-5.2-5.1c0-2.9,2.3-5.2,5.1-5.2c2.9,0,5.2,2.3,5.2,5.1
		C199.1,225.8,196.8,228.1,193.9,228.1z"/>
	<path class="st0" d="M194.3,259.2c-2.9,0-5.2-2.3-5.2-5.1c0-2.9,2.3-5.2,5.1-5.2c2.9,0,5.2,2.3,5.2,5.1S197.1,259.2,194.3,259.2z"
		/>
	<path class="st0" d="M194.7,290.3c-2.9,0-5.2-2.3-5.2-5.1c0-2.9,2.3-5.2,5.1-5.2c2.9,0,5.2,2.3,5.2,5.1
		C199.8,287.9,197.5,290.3,194.7,290.3z"/>
	<path class="st0" d="M160.2,11c-2.9,0-5.2-2.3-5.2-5.1c0-2.9,2.3-5.2,5.1-5.2c2.9,0,5.2,2.3,5.2,5.1C165.4,8.7,163.1,11,160.2,11z"
		/>
	<path class="st0" d="M160.6,42.1c-2.9,0-5.2-2.3-5.2-5.1c0-2.9,2.3-5.2,5.1-5.2c2.9,0,5.2,2.3,5.2,5.1
		C165.7,39.7,163.5,42.1,160.6,42.1z"/>
	<path class="st0" d="M161,73.2c-2.9,0-5.2-2.3-5.2-5.1c0-2.9,2.3-5.2,5.1-5.2c2.9,0,5.2,2.3,5.2,5.1
		C166.1,70.8,163.8,73.1,161,73.2z"/>
	<path class="st0" d="M161.3,104.2c-2.9,0-5.2-2.3-5.2-5.1c0-2.9,2.3-5.2,5.1-5.2c2.9,0,5.2,2.3,5.2,5.1
		C166.5,101.9,164.2,104.2,161.3,104.2z"/>
	<path class="st0" d="M161.7,135.3c-2.9,0-5.2-2.3-5.2-5.1c0-2.9,2.3-5.2,5.1-5.2c2.9,0,5.2,2.3,5.2,5.1
		C166.9,132.9,164.6,135.3,161.7,135.3z"/>
	<path class="st0" d="M162.1,166.4c-2.9,0-5.2-2.3-5.2-5.1c0-2.9,2.3-5.2,5.1-5.2c2.9,0,5.2,2.3,5.2,5.1
		C167.2,164,164.9,166.4,162.1,166.4z"/>
	<path class="st0" d="M162.5,197.5c-2.9,0-5.2-2.3-5.2-5.1c0-2.9,2.3-5.2,5.1-5.2c2.9,0,5.2,2.3,5.2,5.1
		C167.6,195.1,165.3,197.4,162.5,197.5z"/>
	<path class="st0" d="M162.8,228.5c-2.9,0-5.2-2.3-5.2-5.1c0-2.9,2.3-5.2,5.1-5.2c2.9,0,5.2,2.3,5.2,5.1
		C168,226.1,165.7,228.5,162.8,228.5z"/>
	<path class="st0" d="M163.2,259.6c-2.9,0-5.2-2.3-5.2-5.1c0-2.9,2.3-5.2,5.1-5.2c2.9,0,5.2,2.3,5.2,5.1
		C168.4,257.2,166.1,259.6,163.2,259.6z"/>
	<path class="st0" d="M163.6,290.7c-2.9,0-5.2-2.3-5.2-5.1c0-2.9,2.3-5.2,5.1-5.2c2.9,0,5.2,2.3,5.2,5.1
		C168.7,288.3,166.4,290.6,163.6,290.7z"/>
	<path class="st0" d="M129.2,11.4c-2.9,0-5.2-2.3-5.2-5.1c0-2.9,2.3-5.2,5.1-5.2c2.9,0,5.2,2.3,5.2,5.1C134.3,9,132,11.4,129.2,11.4
		z"/>
	<path class="st0" d="M129.5,42.5c-2.9,0-5.2-2.3-5.2-5.1c0-2.9,2.3-5.2,5.1-5.2s5.2,2.3,5.2,5.1C134.7,40.1,132.4,42.4,129.5,42.5z
		"/>
	<path class="st0" d="M129.9,73.6c-2.9,0-5.2-2.3-5.2-5.1c0-2.9,2.3-5.2,5.1-5.2c2.9,0,5.2,2.3,5.2,5.1
		C135,71.2,132.8,73.5,129.9,73.6z"/>
	<path class="st0" d="M130.3,104.6c-2.9,0-5.2-2.3-5.2-5.1c0-2.9,2.3-5.2,5.1-5.2c2.9,0,5.2,2.3,5.2,5.1
		C135.4,102.2,133.1,104.6,130.3,104.6z"/>
	<path class="st0" d="M130.6,135.7c-2.9,0-5.2-2.3-5.2-5.1c0-2.9,2.3-5.2,5.1-5.2c2.9,0,5.2,2.3,5.2,5.1
		C135.8,133.3,133.5,135.7,130.6,135.7z"/>
	<path class="st0" d="M131,166.8c-2.9,0-5.2-2.3-5.2-5.1c0-2.9,2.3-5.2,5.1-5.2c2.9,0,5.2,2.3,5.2,5.1
		C136.2,164.4,133.9,166.7,131,166.8z"/>
	<path class="st0" d="M131.4,197.8c-2.9,0-5.2-2.3-5.2-5.1c0-2.9,2.3-5.2,5.1-5.2c2.9,0,5.2,2.3,5.2,5.1
		C136.5,195.4,134.3,197.8,131.4,197.8z"/>
	<path class="st0" d="M131.8,228.9c-2.9,0-5.2-2.3-5.2-5.1c0-2.9,2.3-5.2,5.1-5.2c2.9,0,5.2,2.3,5.2,5.1
		C136.9,226.5,134.6,228.9,131.8,228.9z"/>
	<path class="st0" d="M132.1,260c-2.9,0-5.2-2.3-5.2-5.1c0-2.9,2.3-5.2,5.1-5.2c2.9,0,5.2,2.3,5.2,5.1
		C137.3,257.6,135,259.9,132.1,260z"/>
	<path class="st0" d="M132.5,291c-2.9,0-5.2-2.3-5.2-5.1c0-2.9,2.3-5.2,5.1-5.2c2.9,0,5.2,2.3,5.2,5.1
		C137.7,288.7,135.4,291,132.5,291z"/>
	<path class="st0" d="M98.1,11.8c-2.9,0-5.2-2.3-5.2-5.1c0-2.9,2.3-5.2,5.1-5.2c2.9,0,5.2,2.3,5.2,5.1
		C103.2,9.4,100.9,11.8,98.1,11.8z"/>
	<path class="st0" d="M98.5,42.9c-2.9,0-5.2-2.3-5.2-5.1c0-2.9,2.3-5.2,5.1-5.2c2.9,0,5.2,2.3,5.2,5.1
		C103.6,40.5,101.3,42.8,98.5,42.9z"/>
	<path class="st0" d="M98.8,73.9c-2.9,0-5.2-2.3-5.2-5.1c0-2.9,2.3-5.2,5.1-5.2c2.9,0,5.2,2.3,5.2,5.1
		C104,71.5,101.7,73.9,98.8,73.9z"/>
	<path class="st0" d="M99.2,105c-2.9,0-5.2-2.3-5.2-5.1c0-2.9,2.3-5.2,5.1-5.2c2.9,0,5.2,2.3,5.2,5.1
		C104.4,102.6,102.1,105,99.2,105z"/>
	<path class="st0" d="M99.6,136.1c-2.9,0-5.2-2.3-5.2-5.1s2.3-5.2,5.1-5.2c2.9,0,5.2,2.3,5.2,5.1C104.7,133.7,102.4,136,99.6,136.1z
		"/>
	<path class="st0" d="M100,167.1c-2.9,0-5.2-2.3-5.2-5.1s2.3-5.2,5.1-5.2c2.9,0,5.2,2.3,5.2,5.1C105.1,164.8,102.8,167.1,100,167.1z
		"/>
	<path class="st0" d="M100.3,198.2c-2.9,0-5.2-2.3-5.2-5.1s2.3-5.2,5.1-5.2c2.9,0,5.2,2.3,5.2,5.1
		C105.5,195.8,103.2,198.2,100.3,198.2z"/>
	<path class="st0" d="M100.7,229.3c-2.9,0-5.2-2.3-5.2-5.1c0-2.9,2.3-5.2,5.1-5.2c2.9,0,5.2,2.3,5.2,5.1
		C105.8,226.9,103.6,229.2,100.7,229.3z"/>
	<path class="st0" d="M101.1,260.3c-2.9,0-5.2-2.3-5.2-5.1c0-2.9,2.3-5.2,5.1-5.2c2.9,0,5.2,2.3,5.2,5.1
		C106.2,258,103.9,260.3,101.1,260.3z"/>
	<path class="st0" d="M101.4,291.4c-2.9,0-5.2-2.3-5.2-5.1c0-2.9,2.3-5.2,5.1-5.2c2.9,0,5.2,2.3,5.2,5.1
		C106.6,289,104.3,291.4,101.4,291.4z"/>
	<path class="st0" d="M67.4,43.2c-2.9,0-5.2-2.3-5.2-5.1c0-2.9,2.3-5.2,5.1-5.2c2.9,0,5.2,2.3,5.2,5.1
		C72.5,40.8,70.2,43.2,67.4,43.2z"/>
	<path class="st0" d="M67.8,74.3c-2.9,0-5.2-2.3-5.2-5.1c0-2.9,2.3-5.2,5.1-5.2c2.9,0,5.2,2.3,5.2,5.1
		C72.9,71.9,70.6,74.3,67.8,74.3z"/>
	<path class="st0" d="M68.1,105.4c-2.9,0-5.2-2.3-5.2-5.1c0-2.9,2.3-5.2,5.1-5.2c2.9,0,5.2,2.3,5.2,5.1
		C73.3,103,71,105.3,68.1,105.4z"/>
	<path class="st0" d="M68.5,136.4c-2.9,0-5.2-2.3-5.2-5.1c0-2.9,2.3-5.2,5.1-5.2c2.9,0,5.2,2.3,5.2,5.1
		C73.7,134.1,71.4,136.4,68.5,136.4z"/>
	<path class="st0" d="M68.9,167.5c-2.9,0-5.2-2.3-5.2-5.1c0-2.9,2.3-5.2,5.1-5.2c2.9,0,5.2,2.3,5.2,5.1
		C74,165.1,71.7,167.5,68.9,167.5z"/>
	<path class="st0" d="M69.3,198.6c-2.9,0-5.2-2.3-5.2-5.1c0-2.9,2.3-5.2,5.1-5.2c2.9,0,5.2,2.3,5.2,5.1
		C74.4,196.2,72.1,198.5,69.3,198.6z"/>
	<path class="st0" d="M69.6,229.6c-2.9,0-5.2-2.3-5.2-5.1c0-2.9,2.3-5.2,5.1-5.2c2.9,0,5.2,2.3,5.2,5.1
		C74.8,227.3,72.5,229.6,69.6,229.6z"/>
	<path class="st0" d="M70,260.7c-2.9,0-5.2-2.3-5.2-5.1c0-2.9,2.3-5.2,5.1-5.2c2.9,0,5.2,2.3,5.2,5.1
		C75.2,258.3,72.9,260.7,70,260.7z"/>
	<path class="st0" d="M36.7,74.7c-2.9,0-5.2-2.3-5.2-5.1c0-2.9,2.3-5.2,5.1-5.2c2.9,0,5.2,2.3,5.2,5.1
		C41.8,72.3,39.6,74.6,36.7,74.7z"/>
	<path class="st0" d="M37.1,105.7c-2.9,0-5.2-2.3-5.2-5.1c0-2.9,2.3-5.2,5.1-5.2c2.9,0,5.2,2.3,5.2,5.1
		C42.2,103.4,39.9,105.7,37.1,105.7z"/>
	<path class="st0" d="M37.4,136.8c-2.9,0-5.2-2.3-5.2-5.1c0-2.9,2.3-5.2,5.1-5.2c2.9,0,5.2,2.3,5.2,5.1
		C42.6,134.4,40.3,136.8,37.4,136.8z"/>
	<path class="st0" d="M37.8,167.9c-2.9,0-5.2-2.3-5.2-5.1c0-2.9,2.3-5.2,5.1-5.2c2.9,0,5.2,2.3,5.2,5.1
		C43,165.5,40.7,167.8,37.8,167.9z"/>
	<path class="st0" d="M38.2,198.9c-2.9,0-5.2-2.3-5.2-5.1c0-2.9,2.3-5.2,5.1-5.2c2.9,0,5.2,2.3,5.2,5.1
		C43.3,196.6,41,198.9,38.2,198.9z"/>
	<path class="st0" d="M38.6,230c-2.9,0-5.2-2.3-5.2-5.1c0-2.9,2.3-5.2,5.1-5.2c2.9,0,5.2,2.3,5.2,5.1C43.7,227.6,41.4,230,38.6,230z
		"/>
	<path class="st0" d="M6,106.1c-2.9,0-5.2-2.3-5.2-5.1c0-2.9,2.3-5.2,5.1-5.2c2.9,0,5.2,2.3,5.2,5.1C11.1,103.7,8.9,106.1,6,106.1z"
		/>
	<path class="st0" d="M6.4,137.2c-2.9,0-5.2-2.3-5.2-5.1c0-2.9,2.3-5.2,5.1-5.2c2.9,0,5.2,2.3,5.2,5.1
		C11.5,134.8,9.2,137.1,6.4,137.2z"/>
	<path class="st0" d="M6.7,168.3c-2.9,0-5.2-2.3-5.2-5.1c0-2.9,2.3-5.2,5.1-5.2c2.9,0,5.2,2.3,5.2,5.1
		C11.9,165.9,9.6,168.2,6.7,168.3z"/>
	<path class="st0" d="M7.1,199.3c-2.9,0-5.2-2.3-5.2-5.1c0-2.9,2.3-5.2,5.1-5.2c2.9,0,5.2,2.3,5.2,5.1
		C12.3,196.9,10,199.3,7.1,199.3z"/>
	<path class="st0" d="M222.4,11c-2.9,0-5.2-2.3-5.2-5.1c0-2.9,2.3-5.2,5.1-5.2s5.2,2.3,5.2,5.1C227.5,8.6,225.2,10.9,222.4,11z"/>
</g>
</svg>
