<?xml version="1.0" encoding="utf-8"?>
<!-- Generator: Adobe Illustrator 21.1.0, SVG Export Plug-In . SVG Version: 6.00 Build 0)  -->
<svg version="1.1" id="Layer_1" xmlns="http://www.w3.org/2000/svg" xmlns:xlink="http://www.w3.org/1999/xlink" x="0px" y="0px"
	 viewBox="0 0 124 290" style="enable-background:new 0 0 124 290;" xml:space="preserve">
<style type="text/css">
	.st0{fill:#FFFFFF;}
</style>
<g>
	<path class="st0" d="M113.6,67.4c0.8,1.4,1.6,2.8,2.3,4.2C114.6,70.8,113.7,69.2,113.6,67.4z"/>
	<path class="st0" d="M85.3,31.7c2.4,2.3,4.8,4.6,7,7c-0.9,1.6-2.6,2.7-4.6,2.7c-2.9,0-5.2-2.3-5.2-5.2
		C82.6,34.3,83.7,32.6,85.3,31.7z"/>
	<path class="st0" d="M52.3,8c1.4,0.8,2.8,1.5,4.2,2.3C54.8,10.3,53.2,9.4,52.3,8z"/>
	<path class="st0" d="M-98.6,10.4c1.4-0.8,2.8-1.6,4.2-2.3C-95.2,9.4-96.8,10.3-98.6,10.4z"/>
	<path class="st0" d="M-134.3,38.7c2.3-2.4,4.6-4.8,7-7c1.6,0.9,2.7,2.6,2.7,4.6c0,2.9-2.3,5.2-5.2,5.2
		C-131.7,41.4-133.4,40.3-134.3,38.7z"/>
	<path class="st0" d="M-158,71.7c0.8-1.4,1.5-2.8,2.3-4.2C-155.7,69.2-156.6,70.8-158,71.7z"/>
	<path class="st0" d="M116,218.3c-0.8,1.4-1.5,2.8-2.3,4.2C113.7,220.8,114.6,219.2,116,218.3z"/>
	<path class="st0" d="M92.3,251.3c-0.9-1.6-2.6-2.7-4.6-2.7c-2.9,0-5.2,2.3-5.2,5.2c0,2,1.1,3.7,2.7,4.6
		C87.7,256,90,253.7,92.3,251.3z"/>
	<path class="st0" d="M56.6,279.6c-1.8,0-3.3,1-4.2,2.3C53.8,281.2,55.2,280.4,56.6,279.6z"/>
	<path class="st0" d="M-94.3,282c-0.9-1.4-2.4-2.3-4.2-2.3C-97.2,280.4-95.8,281.2-94.3,282z"/>
	<path class="st0" d="M-127.3,258.3c1.6-0.9,2.7-2.6,2.7-4.6c0-2.9-2.3-5.2-5.2-5.2c-2,0-3.7,1.1-4.6,2.7
		C-132,253.7-129.7,256-127.3,258.3z"/>
	<path class="st0" d="M-155.6,222.6c0-1.8-1-3.3-2.3-4.2C-157.2,219.8-156.4,221.2-155.6,222.6z"/>
	<path class="st0" d="M-62.4,5.2c0,2.9-2.3,5.2-5.2,5.2c-2.9,0-5.2-2.3-5.2-5.2c0-2.9,2.3-5.2,5.2-5.2C-64.7,0-62.4,2.3-62.4,5.2z"
		/>
	<path class="st0" d="M-31.4,5.2c0,2.9-2.3,5.2-5.2,5.2c-2.9,0-5.2-2.3-5.2-5.2c0-2.9,2.3-5.2,5.2-5.2C-33.7,0-31.4,2.3-31.4,5.2z"
		/>
	<path class="st0" d="M-0.3,5.2c0,2.9-2.3,5.2-5.2,5.2c-2.9,0-5.2-2.3-5.2-5.2c0-2.9,2.3-5.2,5.2-5.2C-2.6,0-0.3,2.3-0.3,5.2z"/>
	<path class="st0" d="M30.8,5.2c0,2.9-2.3,5.2-5.2,5.2c-2.9,0-5.2-2.3-5.2-5.2c0-2.9,2.3-5.2,5.2-5.2C28.5,0,30.8,2.3,30.8,5.2z"/>
	<path class="st0" d="M-93.5,36.2c0,2.9-2.3,5.2-5.2,5.2c-2.9,0-5.2-2.3-5.2-5.2s2.3-5.2,5.2-5.2C-95.8,31.1-93.5,33.4-93.5,36.2z"
		/>
	<path class="st0" d="M-62.4,36.2c0,2.9-2.3,5.2-5.2,5.2c-2.9,0-5.2-2.3-5.2-5.2s2.3-5.2,5.2-5.2C-64.7,31.1-62.4,33.4-62.4,36.2z"
		/>
	<path class="st0" d="M-31.4,36.2c0,2.9-2.3,5.2-5.2,5.2c-2.9,0-5.2-2.3-5.2-5.2s2.3-5.2,5.2-5.2C-33.7,31.1-31.4,33.4-31.4,36.2z"
		/>
	<path class="st0" d="M-0.3,36.2c0,2.9-2.3,5.2-5.2,5.2c-2.9,0-5.2-2.3-5.2-5.2s2.3-5.2,5.2-5.2C-2.6,31.1-0.3,33.4-0.3,36.2z"/>
	<path class="st0" d="M30.8,36.2c0,2.9-2.3,5.2-5.2,5.2c-2.9,0-5.2-2.3-5.2-5.2s2.3-5.2,5.2-5.2C28.5,31.1,30.8,33.4,30.8,36.2z"/>
	<path class="st0" d="M61.9,36.2c0,2.9-2.3,5.2-5.2,5.2c-2.9,0-5.2-2.3-5.2-5.2s2.3-5.2,5.2-5.2C59.5,31.1,61.9,33.4,61.9,36.2z"/>
	<path class="st0" d="M-124.6,67.3c0,2.9-2.3,5.2-5.2,5.2s-5.2-2.3-5.2-5.2c0-2.9,2.3-5.2,5.2-5.2S-124.6,64.5-124.6,67.3z"/>
	<path class="st0" d="M-93.5,67.3c0,2.9-2.3,5.2-5.2,5.2c-2.9,0-5.2-2.3-5.2-5.2c0-2.9,2.3-5.2,5.2-5.2
		C-95.8,62.1-93.5,64.5-93.5,67.3z"/>
	<path class="st0" d="M-62.4,67.3c0,2.9-2.3,5.2-5.2,5.2c-2.9,0-5.2-2.3-5.2-5.2c0-2.9,2.3-5.2,5.2-5.2
		C-64.7,62.1-62.4,64.5-62.4,67.3z"/>
	<path class="st0" d="M-31.4,67.3c0,2.9-2.3,5.2-5.2,5.2c-2.9,0-5.2-2.3-5.2-5.2c0-2.9,2.3-5.2,5.2-5.2
		C-33.7,62.1-31.4,64.5-31.4,67.3z"/>
	<path class="st0" d="M-0.3,67.3c0,2.9-2.3,5.2-5.2,5.2c-2.9,0-5.2-2.3-5.2-5.2c0-2.9,2.3-5.2,5.2-5.2C-2.6,62.1-0.3,64.5-0.3,67.3z
		"/>
	<path class="st0" d="M30.8,67.3c0,2.9-2.3,5.2-5.2,5.2c-2.9,0-5.2-2.3-5.2-5.2c0-2.9,2.3-5.2,5.2-5.2
		C28.5,62.1,30.8,64.5,30.8,67.3z"/>
	<path class="st0" d="M61.9,67.3c0,2.9-2.3,5.2-5.2,5.2c-2.9,0-5.2-2.3-5.2-5.2c0-2.9,2.3-5.2,5.2-5.2
		C59.5,62.1,61.9,64.5,61.9,67.3z"/>
	<path class="st0" d="M92.9,67.3c0,2.9-2.3,5.2-5.2,5.2s-5.2-2.3-5.2-5.2c0-2.9,2.3-5.2,5.2-5.2S92.9,64.5,92.9,67.3z"/>
	<path class="st0" d="M-155.6,98.4c0,2.9-2.3,5.2-5.2,5.2s-5.2-2.3-5.2-5.2s2.3-5.2,5.2-5.2S-155.6,95.5-155.6,98.4z"/>
	<path class="st0" d="M-124.6,98.4c0,2.9-2.3,5.2-5.2,5.2s-5.2-2.3-5.2-5.2s2.3-5.2,5.2-5.2S-124.6,95.5-124.6,98.4z"/>
	<path class="st0" d="M-93.5,98.4c0,2.9-2.3,5.2-5.2,5.2c-2.9,0-5.2-2.3-5.2-5.2s2.3-5.2,5.2-5.2C-95.8,93.2-93.5,95.5-93.5,98.4z"
		/>
	<path class="st0" d="M-62.4,98.4c0,2.9-2.3,5.2-5.2,5.2c-2.9,0-5.2-2.3-5.2-5.2s2.3-5.2,5.2-5.2C-64.7,93.2-62.4,95.5-62.4,98.4z"
		/>
	<path class="st0" d="M-31.4,98.4c0,2.9-2.3,5.2-5.2,5.2c-2.9,0-5.2-2.3-5.2-5.2s2.3-5.2,5.2-5.2C-33.7,93.2-31.4,95.5-31.4,98.4z"
		/>
	<path class="st0" d="M-0.3,98.4c0,2.9-2.3,5.2-5.2,5.2c-2.9,0-5.2-2.3-5.2-5.2s2.3-5.2,5.2-5.2C-2.6,93.2-0.3,95.5-0.3,98.4z"/>
	<path class="st0" d="M30.8,98.4c0,2.9-2.3,5.2-5.2,5.2c-2.9,0-5.2-2.3-5.2-5.2s2.3-5.2,5.2-5.2C28.5,93.2,30.8,95.5,30.8,98.4z"/>
	<path class="st0" d="M61.9,98.4c0,2.9-2.3,5.2-5.2,5.2c-2.9,0-5.2-2.3-5.2-5.2s2.3-5.2,5.2-5.2C59.5,93.2,61.9,95.5,61.9,98.4z"/>
	<path class="st0" d="M92.9,98.4c0,2.9-2.3,5.2-5.2,5.2s-5.2-2.3-5.2-5.2s2.3-5.2,5.2-5.2S92.9,95.5,92.9,98.4z"/>
	<path class="st0" d="M124,98.4c0,2.9-2.3,5.2-5.2,5.2s-5.2-2.3-5.2-5.2s2.3-5.2,5.2-5.2S124,95.5,124,98.4z"/>
	<path class="st0" d="M-155.6,129.5c0,2.9-2.3,5.2-5.2,5.2s-5.2-2.3-5.2-5.2c0-2.9,2.3-5.2,5.2-5.2S-155.6,126.6-155.6,129.5z"/>
	<path class="st0" d="M-124.6,129.5c0,2.9-2.3,5.2-5.2,5.2s-5.2-2.3-5.2-5.2c0-2.9,2.3-5.2,5.2-5.2S-124.6,126.6-124.6,129.5z"/>
	<path class="st0" d="M-93.5,129.5c0,2.9-2.3,5.2-5.2,5.2c-2.9,0-5.2-2.3-5.2-5.2c0-2.9,2.3-5.2,5.2-5.2
		C-95.8,124.3-93.5,126.6-93.5,129.5z"/>
	<path class="st0" d="M-62.4,129.5c0,2.9-2.3,5.2-5.2,5.2c-2.9,0-5.2-2.3-5.2-5.2c0-2.9,2.3-5.2,5.2-5.2
		C-64.7,124.3-62.4,126.6-62.4,129.5z"/>
	<path class="st0" d="M-31.4,129.5c0,2.9-2.3,5.2-5.2,5.2c-2.9,0-5.2-2.3-5.2-5.2c0-2.9,2.3-5.2,5.2-5.2
		C-33.7,124.3-31.4,126.6-31.4,129.5z"/>
	<path class="st0" d="M-0.3,129.5c0,2.9-2.3,5.2-5.2,5.2c-2.9,0-5.2-2.3-5.2-5.2c0-2.9,2.3-5.2,5.2-5.2
		C-2.6,124.3-0.3,126.6-0.3,129.5z"/>
	<path class="st0" d="M30.8,129.5c0,2.9-2.3,5.2-5.2,5.2c-2.9,0-5.2-2.3-5.2-5.2c0-2.9,2.3-5.2,5.2-5.2
		C28.5,124.3,30.8,126.6,30.8,129.5z"/>
	<path class="st0" d="M61.9,129.5c0,2.9-2.3,5.2-5.2,5.2c-2.9,0-5.2-2.3-5.2-5.2c0-2.9,2.3-5.2,5.2-5.2
		C59.5,124.3,61.9,126.6,61.9,129.5z"/>
	<path class="st0" d="M92.9,129.5c0,2.9-2.3,5.2-5.2,5.2s-5.2-2.3-5.2-5.2c0-2.9,2.3-5.2,5.2-5.2S92.9,126.6,92.9,129.5z"/>
	<path class="st0" d="M124,129.5c0,2.9-2.3,5.2-5.2,5.2s-5.2-2.3-5.2-5.2c0-2.9,2.3-5.2,5.2-5.2S124,126.6,124,129.5z"/>
	<path class="st0" d="M-155.6,160.5c0,2.9-2.3,5.2-5.2,5.2s-5.2-2.3-5.2-5.2s2.3-5.2,5.2-5.2S-155.6,157.7-155.6,160.5z"/>
	<path class="st0" d="M-124.6,160.5c0,2.9-2.3,5.2-5.2,5.2s-5.2-2.3-5.2-5.2s2.3-5.2,5.2-5.2S-124.6,157.7-124.6,160.5z"/>
	<path class="st0" d="M-93.5,160.5c0,2.9-2.3,5.2-5.2,5.2c-2.9,0-5.2-2.3-5.2-5.2s2.3-5.2,5.2-5.2
		C-95.8,155.4-93.5,157.7-93.5,160.5z"/>
	<path class="st0" d="M-62.4,160.5c0,2.9-2.3,5.2-5.2,5.2c-2.9,0-5.2-2.3-5.2-5.2s2.3-5.2,5.2-5.2
		C-64.7,155.4-62.4,157.7-62.4,160.5z"/>
	<path class="st0" d="M-31.4,160.5c0,2.9-2.3,5.2-5.2,5.2c-2.9,0-5.2-2.3-5.2-5.2s2.3-5.2,5.2-5.2
		C-33.7,155.4-31.4,157.7-31.4,160.5z"/>
	<path class="st0" d="M-0.3,160.5c0,2.9-2.3,5.2-5.2,5.2c-2.9,0-5.2-2.3-5.2-5.2s2.3-5.2,5.2-5.2C-2.6,155.4-0.3,157.7-0.3,160.5z"
		/>
	<path class="st0" d="M30.8,160.5c0,2.9-2.3,5.2-5.2,5.2c-2.9,0-5.2-2.3-5.2-5.2s2.3-5.2,5.2-5.2C28.5,155.4,30.8,157.7,30.8,160.5z
		"/>
	<path class="st0" d="M61.9,160.5c0,2.9-2.3,5.2-5.2,5.2c-2.9,0-5.2-2.3-5.2-5.2s2.3-5.2,5.2-5.2C59.5,155.4,61.9,157.7,61.9,160.5z
		"/>
	<path class="st0" d="M92.9,160.5c0,2.9-2.3,5.2-5.2,5.2s-5.2-2.3-5.2-5.2s2.3-5.2,5.2-5.2S92.9,157.7,92.9,160.5z"/>
	<path class="st0" d="M124,160.5c0,2.9-2.3,5.2-5.2,5.2s-5.2-2.3-5.2-5.2s2.3-5.2,5.2-5.2S124,157.7,124,160.5z"/>
	<path class="st0" d="M-155.6,191.6c0,2.9-2.3,5.2-5.2,5.2s-5.2-2.3-5.2-5.2s2.3-5.2,5.2-5.2S-155.6,188.7-155.6,191.6z"/>
	<path class="st0" d="M-124.6,191.6c0,2.9-2.3,5.2-5.2,5.2s-5.2-2.3-5.2-5.2s2.3-5.2,5.2-5.2S-124.6,188.7-124.6,191.6z"/>
	<path class="st0" d="M-93.5,191.6c0,2.9-2.3,5.2-5.2,5.2c-2.9,0-5.2-2.3-5.2-5.2s2.3-5.2,5.2-5.2
		C-95.8,186.4-93.5,188.7-93.5,191.6z"/>
	<path class="st0" d="M-62.4,191.6c0,2.9-2.3,5.2-5.2,5.2c-2.9,0-5.2-2.3-5.2-5.2s2.3-5.2,5.2-5.2
		C-64.7,186.4-62.4,188.7-62.4,191.6z"/>
	<path class="st0" d="M-31.4,191.6c0,2.9-2.3,5.2-5.2,5.2c-2.9,0-5.2-2.3-5.2-5.2s2.3-5.2,5.2-5.2
		C-33.7,186.4-31.4,188.7-31.4,191.6z"/>
	<path class="st0" d="M-0.3,191.6c0,2.9-2.3,5.2-5.2,5.2c-2.9,0-5.2-2.3-5.2-5.2s2.3-5.2,5.2-5.2C-2.6,186.4-0.3,188.7-0.3,191.6z"
		/>
	<path class="st0" d="M30.8,191.6c0,2.9-2.3,5.2-5.2,5.2c-2.9,0-5.2-2.3-5.2-5.2s2.3-5.2,5.2-5.2C28.5,186.4,30.8,188.7,30.8,191.6z
		"/>
	<path class="st0" d="M61.9,191.6c0,2.9-2.3,5.2-5.2,5.2c-2.9,0-5.2-2.3-5.2-5.2s2.3-5.2,5.2-5.2C59.5,186.4,61.9,188.7,61.9,191.6z
		"/>
	<path class="st0" d="M92.9,191.6c0,2.9-2.3,5.2-5.2,5.2s-5.2-2.3-5.2-5.2s2.3-5.2,5.2-5.2S92.9,188.7,92.9,191.6z"/>
	<path class="st0" d="M124,191.6c0,2.9-2.3,5.2-5.2,5.2s-5.2-2.3-5.2-5.2s2.3-5.2,5.2-5.2S124,188.7,124,191.6z"/>
	<path class="st0" d="M-124.6,222.7c0,2.9-2.3,5.2-5.2,5.2s-5.2-2.3-5.2-5.2s2.3-5.2,5.2-5.2S-124.6,219.8-124.6,222.7z"/>
	<path class="st0" d="M-93.5,222.7c0,2.9-2.3,5.2-5.2,5.2c-2.9,0-5.2-2.3-5.2-5.2s2.3-5.2,5.2-5.2
		C-95.8,217.5-93.5,219.8-93.5,222.7z"/>
	<path class="st0" d="M-62.4,222.7c0,2.9-2.3,5.2-5.2,5.2c-2.9,0-5.2-2.3-5.2-5.2s2.3-5.2,5.2-5.2
		C-64.7,217.5-62.4,219.8-62.4,222.7z"/>
	<path class="st0" d="M-31.4,222.7c0,2.9-2.3,5.2-5.2,5.2c-2.9,0-5.2-2.3-5.2-5.2s2.3-5.2,5.2-5.2
		C-33.7,217.5-31.4,219.8-31.4,222.7z"/>
	<path class="st0" d="M-0.3,222.7c0,2.9-2.3,5.2-5.2,5.2c-2.9,0-5.2-2.3-5.2-5.2s2.3-5.2,5.2-5.2C-2.6,217.5-0.3,219.8-0.3,222.7z"
		/>
	<path class="st0" d="M30.8,222.7c0,2.9-2.3,5.2-5.2,5.2c-2.9,0-5.2-2.3-5.2-5.2s2.3-5.2,5.2-5.2C28.5,217.5,30.8,219.8,30.8,222.7z
		"/>
	<path class="st0" d="M61.9,222.7c0,2.9-2.3,5.2-5.2,5.2c-2.9,0-5.2-2.3-5.2-5.2s2.3-5.2,5.2-5.2C59.5,217.5,61.9,219.8,61.9,222.7z
		"/>
	<path class="st0" d="M92.9,222.7c0,2.9-2.3,5.2-5.2,5.2s-5.2-2.3-5.2-5.2s2.3-5.2,5.2-5.2S92.9,219.8,92.9,222.7z"/>
	<path class="st0" d="M-93.5,253.7c0,2.9-2.3,5.2-5.2,5.2c-2.9,0-5.2-2.3-5.2-5.2s2.3-5.2,5.2-5.2
		C-95.8,248.6-93.5,250.9-93.5,253.7z"/>
	<path class="st0" d="M-62.4,253.7c0,2.9-2.3,5.2-5.2,5.2c-2.9,0-5.2-2.3-5.2-5.2s2.3-5.2,5.2-5.2
		C-64.7,248.6-62.4,250.9-62.4,253.7z"/>
	<path class="st0" d="M-31.4,253.7c0,2.9-2.3,5.2-5.2,5.2c-2.9,0-5.2-2.3-5.2-5.2s2.3-5.2,5.2-5.2
		C-33.7,248.6-31.4,250.9-31.4,253.7z"/>
	<path class="st0" d="M-0.3,253.7c0,2.9-2.3,5.2-5.2,5.2c-2.9,0-5.2-2.3-5.2-5.2s2.3-5.2,5.2-5.2C-2.6,248.6-0.3,250.9-0.3,253.7z"
		/>
	<path class="st0" d="M30.8,253.7c0,2.9-2.3,5.2-5.2,5.2c-2.9,0-5.2-2.3-5.2-5.2s2.3-5.2,5.2-5.2C28.5,248.6,30.8,250.9,30.8,253.7z
		"/>
	<path class="st0" d="M61.9,253.7c0,2.9-2.3,5.2-5.2,5.2c-2.9,0-5.2-2.3-5.2-5.2s2.3-5.2,5.2-5.2C59.5,248.6,61.9,250.9,61.9,253.7z
		"/>
	<path class="st0" d="M-62.4,284.8c0,2.9-2.3,5.2-5.2,5.2c-2.9,0-5.2-2.3-5.2-5.2c0-2.9,2.3-5.2,5.2-5.2
		C-64.7,279.6-62.4,282-62.4,284.8z"/>
	<path class="st0" d="M-31.4,284.8c0,2.9-2.3,5.2-5.2,5.2c-2.9,0-5.2-2.3-5.2-5.2c0-2.9,2.3-5.2,5.2-5.2
		C-33.7,279.6-31.4,282-31.4,284.8z"/>
	<path class="st0" d="M-0.3,284.8c0,2.9-2.3,5.2-5.2,5.2c-2.9,0-5.2-2.3-5.2-5.2c0-2.9,2.3-5.2,5.2-5.2
		C-2.6,279.6-0.3,282-0.3,284.8z"/>
	<path class="st0" d="M30.8,284.8c0,2.9-2.3,5.2-5.2,5.2c-2.9,0-5.2-2.3-5.2-5.2c0-2.9,2.3-5.2,5.2-5.2
		C28.5,279.6,30.8,282,30.8,284.8z"/>
</g>
</svg>
